M48
INCH,TZ
VER,1
FMAT,2
DETECT,ON
ATC,ON
T1C0.13780
T2C0.02362
T3C0.03500
T4C0.03543
T5C0.08661
T6C0.03937
T7C0.03917
T8C0.04000
T9C0.04667
%
T1
X2.61000Y0.07000
X2.62000Y2.42000
X6.26000Y0.07000
X6.24000Y2.44000
T2
X3.70000Y0.28000
X3.14000Y1.72000
X2.82000Y1.76000
X3.06000Y1.84000
X2.94000Y1.96000
X3.54000Y1.50000
X3.58000Y1.76000
X3.46000Y2.16000
X3.42000Y2.10000
X3.86000Y0.96000
X4.42000Y2.40000
X3.94000Y1.56000
X3.86000Y1.72000
X3.90000Y1.64000
X4.30000Y1.40000
X4.34000Y1.48000
X4.30000Y1.92000
X4.22000Y2.40000
X4.30000Y2.36000
X4.74000Y1.48000
X4.46000Y1.40000
Y1.48000
Y1.72000
X4.58000Y1.96000
X4.98000Y2.20000
X4.92000Y2.16000
X5.38000Y0.88000
X5.18000Y0.92000
X5.14000Y0.68000
X5.12000Y1.44000
X5.54000Y1.36000
T3
X5.14000Y0.08000
Y0.28000
X4.88000Y0.74000
X4.78000
X4.98000
X5.38000
X5.18000
X5.08000
X5.28000
X4.88000Y1.04000
X4.78000
X4.98000
X5.38000
X5.18000
X5.08000
X5.28000
X5.10000Y2.26000
Y2.46000
X5.16000Y0.46000
Y0.53833
X2.56000Y0.62000
Y0.22000
X3.44000Y0.12000
X3.24000
X3.34000
X3.64000
X3.54000
X3.74000
X3.94000
X3.84000
X4.04000
X3.78000Y2.46000
Y2.26000
X3.30000Y1.26833
Y1.46000
X2.84000Y0.56000
Y0.46000
Y0.36000
Y0.26000
X3.14000Y0.56000
Y0.26000
Y0.46000
Y0.36000
Y0.68000
X2.84000
X3.00000Y0.12000
X2.90000
X2.70000Y0.24000
Y0.44000
X3.48000Y0.64000
Y0.34000
X3.38000Y0.56000
Y0.86000
X3.28000Y0.56000
Y0.86000
X3.24000Y0.24000
X3.54000
X3.30000Y1.08000
Y0.98000
X3.26000Y2.26000
Y2.46000
X2.60000Y1.86000
Y2.16000
X2.86000Y1.88000
Y2.18000
X2.72000Y1.86000
Y2.16000
X2.60000Y1.48000
Y1.78000
X2.72000Y1.48000
Y1.78000
X2.96000Y2.06000
Y2.36000
X3.30000Y1.74000
Y1.64000
X3.52000Y2.26000
Y2.46000
X3.98000Y1.36000
X4.18000
X4.06000Y1.06000
X4.16000Y0.96000
X4.26000
X4.36000
X4.26000Y1.06000
X4.16000
X4.36000
X4.46000Y0.96000
Y1.06000
X4.14000Y0.64000
X4.24000Y0.74000
X4.14000
X4.32000Y2.26000
Y2.46000
X4.36000Y1.36000
Y1.66000
Y1.76000
Y2.06000
X3.88000Y1.86000
Y2.16000
X4.04000Y2.26000
Y2.46000
X4.52000Y1.76000
Y2.06000
X4.70000Y1.76000
Y2.06000
X4.84000Y1.76000
Y2.06000
X4.70000Y1.36000
Y1.66000
X4.52000Y1.36000
Y1.66000
X4.84000Y1.36000
Y1.66000
Y2.26000
Y2.46000
X4.58000
Y2.26000
X5.70000Y0.74000
X5.60000
X6.00000
X5.80000
X5.90000
X6.10000
X6.20000
X5.70000Y1.04000
X5.60000
X6.00000
X5.80000
X5.90000
X6.10000
X6.20000
X6.24000Y1.86000
Y2.16000
Y1.46000
Y1.76000
X5.80000Y1.28000
X6.10000
X5.62000Y1.26000
Y1.56000
X5.26000Y1.16000
X5.46000
X5.60000Y0.32000
Y0.52000
X5.40000Y0.32000
Y0.52000
X5.86000Y0.47814
Y0.39981
X5.66000Y1.86000
Y1.66000
X5.80000Y1.86000
Y1.56000
Y1.46000
Y1.76000
Y1.66000
Y2.06000
Y1.96000
X6.10000Y1.86000
Y1.56000
Y1.46000
Y1.76000
Y1.66000
Y2.06000
Y1.96000
X6.00000Y2.42000
X5.80000
X5.90000
X5.24000Y1.98000
X5.54000
X5.24000Y1.84000
X5.54000
X5.36000Y2.26000
Y2.46000
X5.60000Y1.94000
Y2.24000
X5.80000
X6.10000
T4
X2.81906Y1.19591
Y1.00693
Y0.92819
Y1.11677
X2.91748Y0.92819
Y1.09748
Y1.02661
Y1.19591
T5
X2.73047Y0.79000
X2.65173Y1.07000
X2.73047Y1.33000
T6
X3.75559Y2.06000
Y1.46000
Y1.76000
Y1.96000
Y1.86000
Y1.56000
Y1.66000
Y1.26000
Y1.36000
Y1.16000
Y0.96000
Y1.06000
Y0.86000
Y0.76000
X3.48000Y1.26000
Y1.16000
Y1.06000
Y0.96000
Y0.86000
Y0.76000
Y1.86000
Y1.66000
Y1.76000
Y1.56000
Y1.46000
Y1.36000
Y2.06000
Y1.96000
T7
X4.14000Y0.12000
X2.80000
X4.06000Y0.96000
X4.24000Y0.64000
X5.70000Y2.42000
T8
X3.12000Y1.90000
Y2.00000
X3.07000Y1.95000
T9
X6.24000Y0.30000
Y0.50000
Y0.40000
M30
