M48
INCH,TZ
VER,1
FMAT,2
DETECT,ON
ATC,ON
T1C0.02362
T2C0.03500
T3C0.03937
T4C0.04667
T5C0.03543
T6C0.08661
T7C0.03917
T8C0.04000
T9C0.11833
T10C0.03333
%
T1
X1.78000Y1.18000
X1.86000
X1.58000Y1.94000
X1.30000Y2.10000
X2.22000Y1.58000
X2.46000Y2.18000
X2.42000Y1.92000
X2.34000Y2.30000
X2.42000Y2.46000
X1.26000Y3.82000
X0.66000Y3.10000
X1.22000Y2.86000
Y3.90000
X1.90000Y3.10000
X2.34000Y3.06000
X2.38000Y3.30000
X2.48000
X2.98000Y1.18000
X3.04000Y1.16000
X2.58000Y1.58000
X3.02000Y1.38000
X2.70000Y2.06000
X2.62000Y2.46000
X2.58000Y2.82000
X2.66000Y3.74000
X3.10000Y3.42000
T2
X2.46000Y2.78000
Y3.08000
X0.72000Y2.50000
Y2.30000
X1.06000Y2.50000
X1.16000
Y2.20000
X1.06000
Y2.10000
Y2.30000
Y2.40000
X1.16000Y2.30000
Y2.40000
X2.48000Y2.38000
Y2.68000
X1.12000Y1.46000
Y1.66000
X0.72000Y1.84000
Y2.04000
X1.96000Y2.12000
Y2.31167
X1.86000Y1.86000
X2.06000
X2.16000Y1.96000
X2.36000
X1.26000Y3.00000
X1.46000
X0.56000Y3.84000
X0.74000
X0.64000Y2.88000
Y2.78000
X0.74000Y2.88000
X0.58000Y3.32000
Y3.22000
Y3.42000
X0.86000Y3.32000
Y3.22000
Y3.42000
X1.86004Y2.61953
X2.06004
X1.62000Y2.78000
Y3.08000
X1.76000Y2.78000
Y3.08000
X2.64000Y2.38000
Y2.68000
X3.66000Y1.73750
Y1.84667
Y2.06500
Y1.95583
X3.56000Y1.90167
Y1.68333
Y1.79250
Y2.01083
X3.34000Y1.28000
Y1.48000
X3.12000Y1.90000
Y1.60000
Y1.40000
Y1.30000
Y1.50000
Y1.70000
Y1.80000
Y2.00000
X2.82000Y1.90000
Y1.60000
Y1.40000
Y1.30000
Y1.50000
Y1.70000
Y1.80000
Y2.00000
X3.12000Y2.14000
Y2.34000
Y2.24000
Y2.44000
X2.82000Y2.14000
Y2.34000
Y2.24000
Y2.44000
X3.22000Y1.97606
X3.42000
X3.33803Y1.57803
Y1.77803
X3.66000Y3.43333
Y3.32417
Y3.21500
Y3.54250
X3.56000Y3.48750
Y3.26917
Y3.37833
Y3.59667
X2.92000Y3.80000
Y3.30000
Y3.20000
Y3.40000
Y3.60000
Y3.50000
Y3.70000
X3.22000Y3.80000
Y3.30000
Y3.20000
Y3.40000
Y3.60000
Y3.50000
Y3.70000
X2.78000Y3.80000
Y3.50000
X3.16000Y2.76000
Y3.06000
X2.72000Y3.10000
Y3.40000
X2.76000Y2.62000
X3.06000
X2.80000Y2.78000
Y3.08000
X2.64000Y2.78000
Y3.08000
X2.98000Y2.76000
Y3.06000
X3.65000Y2.63000
X3.32000Y2.76000
Y3.06000
X3.38000Y3.28000
Y3.58000
X3.99000Y2.63000
T3
X2.30567Y3.18000
Y3.48000
Y3.68000
Y3.88000
X2.62063Y3.18000
Y3.48000
Y3.68000
Y3.88000
X1.44441Y2.54000
X1.72000
X1.44441Y1.44000
Y1.34000
Y1.54000
Y1.84000
Y1.74000
Y1.64000
X1.72000Y1.54000
Y1.44000
Y1.34000
Y1.74000
Y1.64000
Y1.84000
X1.44441Y2.24000
Y2.04000
Y2.14000
Y1.94000
Y2.34000
Y2.44000
X1.72000Y2.24000
Y1.94000
Y2.14000
Y2.04000
Y2.34000
Y2.44000
X1.44441Y2.64000
X1.72000
X1.04567Y3.18000
Y3.48000
Y3.68000
Y3.88000
X1.36063Y3.18000
Y3.48000
Y3.68000
Y3.88000
X1.46567Y3.18000
X1.78063
X1.46567Y3.48000
Y3.68000
X1.78063Y3.48000
Y3.68000
X1.46567Y3.88000
X1.78063
X1.88567Y3.18000
Y3.48000
Y3.68000
X2.20063Y3.18000
Y3.48000
Y3.68000
X1.88567Y3.88000
X2.20063
T4
X2.56000Y1.92000
Y2.02000
Y2.12000
X2.26000Y2.20000
Y2.40000
Y2.30000
T5
X2.51307Y1.39906
X2.32409
Y1.49748
X2.40323Y1.39906
X2.49339Y1.49748
X2.42252
X2.59181Y1.39906
Y1.49748
T6
X2.46000Y1.28488
X2.23000Y1.32000
X2.69000
T7
X1.16000Y2.10000
X0.56000Y3.74000
X0.74000
Y2.78000
X0.58000Y3.12000
X0.86000
X3.55000Y2.63000
X3.89000
T8
X2.18000Y2.62000
X2.23000Y2.67000
X2.28000Y2.62000
X1.92000Y1.50000
X2.02000
X1.97000Y1.55000
X2.20000Y3.00000
X2.10000
X2.15000Y3.05000
T9
X3.61000Y1.41000
Y2.39417
Y3.87083
Y2.88667
T10
X3.56000Y2.12000
Y3.16000
M30
