M48
INCH,TZ
VER,1
FMAT,2
DETECT,ON
ATC,ON
T1C0.02362
T2C0.03543
T3C0.08661
T4C0.03500
T5C0.04667
T6C0.11833
T7C0.03333
T8C0.03917
T9C0.03937
T10C0.04000
%
T1
X0.96000Y2.52000
X1.24000Y2.06000
X0.96000Y2.44000
X1.04000Y2.12000
Y2.44000
X1.32000Y2.20000
X1.28000Y2.72000
Y2.64000
X0.28000Y2.76000
X0.08000Y2.92000
X0.44000Y2.84000
Y2.72000
X0.48000Y2.96000
X0.68000Y3.12000
X0.76000Y2.88000
X1.36000Y2.60000
T2
X0.31906Y2.49677
Y2.38693
Y2.30819
X0.41748
Y2.40661
Y2.47748
X0.31906Y2.57591
X0.41748
T3
X0.24000Y2.21000
X0.20488Y2.44000
X0.24000Y2.67000
T4
X1.16000Y2.48000
X1.36000
X1.88000
X1.68000
X1.24667Y1.10000
X1.13750
X1.35583
X1.46500
X1.08333Y1.20000
X1.19250
X1.41083
X1.30167
X1.18000Y1.90000
Y1.60000
Y1.50000
Y1.70000
Y1.80000
Y2.20000
Y2.00000
Y2.10000
X1.48000Y1.90000
Y1.60000
Y1.50000
Y1.70000
Y1.80000
Y2.20000
Y2.00000
Y2.10000
X0.28000Y0.98000
Y1.18000
X0.82000Y1.92000
Y1.72000
X0.20000Y1.90000
X0.40000Y1.68000
Y1.98000
X0.26000Y1.60000
X0.56000
X0.30000Y1.50000
X0.10000
X0.20000
Y1.68000
X0.32000Y2.06000
X0.12000
X0.22000
X1.92000Y1.58000
X1.72000
X1.90000Y2.02000
X1.70000
X1.88000Y3.78000
Y3.48000
Y3.10000
Y3.40000
T5
X0.80000Y2.48000
Y2.68000
Y2.58000
X1.90000Y2.84000
X1.70000
X1.80000
T6
X0.81000Y1.15000
X1.79417
T7
X1.52000Y1.20000
T8
X0.10000Y1.90000
X0.40000Y1.50000
X0.10000Y1.68000
X0.42000Y2.06000
T9
X1.25433Y3.12000
Y3.32000
Y3.52000
Y3.82000
X0.93937Y3.12000
Y3.32000
Y3.52000
Y3.82000
X0.51937Y3.12000
Y3.32000
Y3.52000
X0.83433Y3.12000
Y3.32000
Y3.52000
X0.51937Y3.82000
X0.83433
X0.11937Y3.12000
X0.43433
X0.11937Y3.32000
Y3.52000
X0.43433Y3.32000
Y3.52000
X0.11937Y3.82000
X0.43433
X1.35937Y3.12000
X1.67433
X1.35937Y3.32000
Y3.52000
X1.67433Y3.32000
Y3.52000
X1.35937Y3.82000
X1.67433
T10
X0.62792Y2.91792
X0.57792Y2.96792
Y2.86792
X0.24000Y2.98000
X0.29000Y2.93000
X0.24000Y2.88000
M30
